<svg width="35" height="39" viewBox="0 0 35 39" fill="none" xmlns="http://www.w3.org/2000/svg">
<path d="M32.5 14.6261C31.125 14.6261 30 15.7229 30 17.0635V26.813C30 28.1536 31.125 29.2504 32.5 29.2504C33.875 29.2504 35 28.1536 35 26.813V17.0635C35 15.7229 33.875 14.6261 32.5 14.6261ZM2.5 14.6261C1.125 14.6261 0 15.7229 0 17.0635V26.813C0 28.1536 1.125 29.2504 2.5 29.2504C3.875 29.2504 5 28.1536 5 26.813V17.0635C5 15.7229 3.875 14.6261 2.5 14.6261ZM6.25 28.0317C6.25 29.0014 6.64509 29.9313 7.34835 30.617C8.05161 31.3026 9.00544 31.6878 10 31.6878V36.5626C10 37.9032 11.125 39 12.5 39C13.875 39 15 37.9032 15 36.5626V31.6878H20V36.5626C20 37.9032 21.125 39 22.5 39C23.875 39 25 37.9032 25 36.5626V31.6878C25.9946 31.6878 26.9484 31.3026 27.6517 30.617C28.3549 29.9313 28.75 29.0014 28.75 28.0317V14.6261H6.25V28.0317ZM28.68 12.1887C28.4948 10.5754 27.9447 9.02236 27.0692 7.64153C26.1937 6.2607 25.0148 5.08655 23.6175 4.20379L24.8675 1.76396C25.0157 1.47468 25.0399 1.13986 24.9349 0.833142C24.8299 0.526428 24.6042 0.272951 24.3075 0.128472C24.0108 -0.0160063 23.6674 -0.0396513 23.3528 0.0627391C23.0382 0.165129 22.7782 0.385168 22.63 0.674448L21.375 3.12159L21.05 2.99485C18.7453 2.24834 16.2547 2.24834 13.95 2.99485L13.625 3.12159L12.37 0.674448C12.2218 0.385168 11.9618 0.165129 11.6472 0.0627391C11.3326 -0.0396512 10.9892 -0.0160063 10.6925 0.128472C10.3958 0.272951 10.1701 0.526428 10.0651 0.833142C9.96006 1.13986 9.98431 1.47468 10.1325 1.76396L11.3825 4.20379C9.98506 5.08642 8.80605 6.26054 7.93058 7.64139C7.0551 9.02225 6.50501 10.5754 6.32 12.1887V13.4074H28.75V12.1887H28.68ZM13.75 9.7513C13.4185 9.75162 13.1004 9.62353 12.8658 9.39521C12.6311 9.16689 12.4991 8.85704 12.4987 8.53382C12.4984 8.2106 12.6298 7.90049 12.864 7.67171C13.0982 7.44294 13.416 7.31423 13.7475 7.3139H13.7525C14.084 7.31423 14.4018 7.44294 14.636 7.67171C14.8702 7.90049 15.0016 8.2106 15.0013 8.53382C15.0009 8.85704 14.8689 9.16689 14.6342 9.39521C14.3996 9.62353 14.0815 9.75162 13.75 9.7513ZM21.25 9.7513C20.9185 9.75162 20.6004 9.62353 20.3658 9.39521C20.1311 9.16689 19.9991 8.85704 19.9988 8.53382C19.9984 8.2106 20.1298 7.90049 20.364 7.67171C20.5982 7.44294 20.916 7.31423 21.2475 7.3139H21.255C21.5865 7.31423 21.9043 7.44294 22.1385 7.67171C22.3727 7.90049 22.5041 8.2106 22.5038 8.53382C22.5034 8.85704 22.3714 9.16689 22.1368 9.39521C21.9021 9.62353 21.584 9.75162 21.2525 9.7513H21.25Z" fill="white"/>
</svg>
