<svg width="414" height="122" viewBox="0 0 414 122" fill="none" xmlns="http://www.w3.org/2000/svg">
<mask id="mask0_23_141" style="mask-type:luminance" maskUnits="userSpaceOnUse" x="0" y="0" width="95" height="111">
<path d="M0 0H95V111H0V0Z" fill="white"/>
</mask>
<g mask="url(#mask0_23_141)">
<mask id="mask1_23_141" style="mask-type:luminance" maskUnits="userSpaceOnUse" x="0" y="0" width="95" height="111">
<path d="M47.5 0L95 27.75V83.25L47.5 111L0 83.25V27.75L47.5 0Z" fill="white"/>
</mask>
<g mask="url(#mask1_23_141)">
<path d="M47.5 0L95 27.75V83.25L47.5 111L0 83.25V27.75L47.5 0Z" stroke="#C7C6C4" stroke-width="25.9939"/>
</g>
</g>
<path d="M58.1049 66.1849H36.9174L32.8757 75.9557H22.0632L42.3966 30.3307H52.8132L73.2091 75.9557H62.1466L58.1049 66.1849ZM54.7716 58.164L47.5424 40.7057L40.3132 58.164H54.7716Z" fill="#C7C6C4"/>
<path d="M157.518 70.5583H129.226L123.83 83.6208H109.372L136.538 22.6833H150.455L177.705 83.6208H162.913L157.518 70.5583ZM153.08 59.85L143.413 36.5375L133.747 59.85H153.08Z" fill="#C7C6C4"/>
<path d="M195.38 84.3083C191.489 84.3083 187.682 83.8344 183.963 82.8916C180.255 81.9333 177.302 80.725 175.109 79.2666L179.63 69.5166C181.713 70.85 184.234 71.9437 187.192 72.7875C190.151 73.6208 193.052 74.0375 195.901 74.0375C201.651 74.0375 204.526 72.6208 204.526 69.7875C204.526 68.4541 203.739 67.4958 202.172 66.9125C200.599 66.3291 198.192 65.8396 194.942 65.4333C191.109 64.85 187.942 64.1833 185.442 63.4333C182.953 62.6729 180.797 61.3396 178.963 59.4333C177.14 57.5166 176.234 54.7875 176.234 51.2458C176.234 48.2875 177.088 45.6625 178.797 43.3708C180.505 41.0791 182.995 39.2979 186.276 38.0166C189.552 36.7406 193.427 36.1 197.901 36.1C201.203 36.1 204.495 36.4646 207.776 37.1833C211.052 37.9073 213.765 38.9073 215.922 40.1833L211.401 49.85C207.276 47.5323 202.776 46.3708 197.901 46.3708C194.995 46.3708 192.817 46.7823 191.359 47.6C189.911 48.4073 189.192 49.4489 189.192 50.725C189.192 52.1729 189.974 53.1833 191.547 53.7666C193.114 54.35 195.614 54.9021 199.047 55.4125C202.864 56.0531 205.989 56.7406 208.422 57.475C210.864 58.1989 212.984 59.5166 214.776 61.4333C216.578 63.3396 217.484 66.0062 217.484 69.4333C217.484 72.3396 216.614 74.9229 214.88 77.1833C213.14 79.4489 210.599 81.2041 207.255 82.4541C203.922 83.6885 199.963 84.3083 195.38 84.3083Z" fill="#C7C6C4"/>
<path d="M244.994 84.3083C240.005 84.3083 235.52 83.2823 231.536 81.225C227.562 79.1729 224.458 76.3187 222.223 72.6625C220 68.9958 218.89 64.8448 218.89 60.2041C218.89 55.5687 220 51.4229 222.223 47.7666C224.458 44.1 227.562 41.2406 231.536 39.1833C235.52 37.1312 240.005 36.1 244.994 36.1C249.921 36.1 254.229 37.1312 257.911 39.1833C261.604 41.2406 264.291 44.1833 265.973 48.0166L255.432 53.6833C253 49.3916 249.494 47.2458 244.911 47.2458C241.369 47.2458 238.437 48.4073 236.119 50.725C233.796 53.0479 232.64 56.2041 232.64 60.2041C232.64 64.2041 233.796 67.3708 236.119 69.7041C238.437 72.0271 241.369 73.1833 244.911 73.1833C249.546 73.1833 253.057 71.0323 255.432 66.725L265.973 72.475C264.291 76.1989 261.604 79.1 257.911 81.1833C254.229 83.2666 249.921 84.3083 244.994 84.3083Z" fill="#C7C6C4"/>
<path d="M316.207 60.3708C316.207 60.5531 316.113 61.7771 315.936 64.0375H280.519C281.155 66.9437 282.665 69.2354 285.04 70.9125C287.415 72.5948 290.373 73.4333 293.915 73.4333C296.358 73.4333 298.519 73.0739 300.394 72.35C302.28 71.6312 304.04 70.4854 305.665 68.9125L312.894 76.7458C308.478 81.7875 302.03 84.3083 293.561 84.3083C288.28 84.3083 283.608 83.2823 279.54 81.225C275.483 79.1729 272.353 76.3187 270.144 72.6625C267.946 68.9958 266.853 64.8448 266.853 60.2041C266.853 55.6208 267.936 51.4906 270.103 47.8083C272.28 44.1156 275.269 41.2406 279.061 39.1833C282.863 37.1312 287.123 36.1 291.832 36.1C296.415 36.1 300.561 37.0896 304.269 39.0583C307.988 41.0323 310.905 43.8656 313.019 47.5583C315.144 51.2406 316.207 55.5114 316.207 60.3708ZM291.915 46.3708C288.842 46.3708 286.259 47.2406 284.165 48.975C282.082 50.7146 280.8 53.0948 280.332 56.1208H303.394C302.936 53.1625 301.655 50.8031 299.561 49.0375C297.478 47.2614 294.925 46.3708 291.915 46.3708Z" fill="#C7C6C4"/>
<path d="M350.234 36.1C356.036 36.1 360.724 37.8448 364.297 41.3291C367.864 44.8031 369.651 49.9646 369.651 56.8083V83.6208H356.068V58.8916C356.068 55.1833 355.255 52.4229 353.63 50.6C352.005 48.7666 349.656 47.85 346.588 47.85C343.156 47.85 340.427 48.9125 338.401 51.0375C336.37 53.1521 335.359 56.2979 335.359 60.475V83.6208H321.776V36.7875H334.734V42.2666C336.536 40.2979 338.776 38.7771 341.443 37.7041C344.109 36.6364 347.036 36.1 350.234 36.1Z" fill="#C7C6C4"/>
<path d="M408.651 81.35C407.302 82.3395 405.656 83.0791 403.714 83.5791C401.781 84.0635 399.74 84.3083 397.589 84.3083C392.016 84.3083 387.703 82.8916 384.651 80.0583C381.61 77.2145 380.089 73.0322 380.089 67.5166V48.2875H372.86V37.8291H380.089V26.4333H393.672V37.8291H405.339V48.2875H393.672V67.35C393.672 69.3239 394.177 70.8447 395.193 71.9125C396.203 72.9854 397.641 73.5166 399.505 73.5166C401.641 73.5166 403.469 72.9437 404.985 71.7875L408.651 81.35Z" fill="#C7C6C4"/>
<path d="M208.779 121.561C206.68 121.561 204.622 121.301 202.612 120.79C200.596 120.264 198.992 119.613 197.8 118.832L200.258 113.561C201.383 114.285 202.742 114.874 204.341 115.332C205.951 115.78 207.529 115.999 209.07 115.999C212.18 115.999 213.737 115.228 213.737 113.686C213.737 112.967 213.31 112.452 212.466 112.144C211.617 111.827 210.31 111.556 208.55 111.332C206.477 111.03 204.763 110.676 203.404 110.269C202.055 109.853 200.888 109.134 199.904 108.103C198.914 107.061 198.425 105.582 198.425 103.665C198.425 102.056 198.883 100.634 199.8 99.3945C200.727 98.1445 202.081 97.1809 203.862 96.4986C205.638 95.8059 207.737 95.457 210.154 95.457C211.945 95.457 213.721 95.6601 215.487 96.0611C217.263 96.4518 218.737 96.9882 219.904 97.6653L217.445 102.894C215.221 101.644 212.789 101.019 210.154 101.019C208.581 101.019 207.404 101.243 206.612 101.686C205.831 102.118 205.445 102.681 205.445 103.374C205.445 104.165 205.867 104.723 206.716 105.04C207.56 105.348 208.909 105.639 210.758 105.915C212.841 106.264 214.539 106.639 215.862 107.04C217.18 107.431 218.326 108.144 219.3 109.186C220.268 110.217 220.758 111.655 220.758 113.499C220.758 115.072 220.284 116.473 219.341 117.707C218.393 118.931 217.018 119.884 215.216 120.561C213.409 121.228 211.263 121.561 208.779 121.561Z" fill="#C7C6C4"/>
<path d="M237.34 121.561C234.674 121.561 232.278 121.009 230.153 119.894C228.028 118.769 226.366 117.223 225.174 115.249C223.976 113.264 223.382 111.019 223.382 108.519C223.382 106.009 223.976 103.764 225.174 101.79C226.366 99.8059 228.028 98.2591 230.153 97.1445C232.278 96.0195 234.674 95.457 237.34 95.457C240.007 95.457 242.387 96.0195 244.486 97.1445C246.596 98.2591 248.247 99.8059 249.445 101.79C250.637 103.764 251.236 106.009 251.236 108.519C251.236 111.019 250.637 113.264 249.445 115.249C248.247 117.223 246.596 118.769 244.486 119.894C242.387 121.009 240.007 121.561 237.34 121.561ZM237.34 115.54C239.226 115.54 240.778 114.905 241.986 113.624C243.195 112.348 243.799 110.644 243.799 108.519C243.799 106.384 243.195 104.676 241.986 103.394C240.778 102.118 239.226 101.478 237.34 101.478C235.45 101.478 233.892 102.118 232.674 103.394C231.45 104.676 230.84 106.384 230.84 108.519C230.84 110.644 231.45 112.348 232.674 113.624C233.892 114.905 235.45 115.54 237.34 115.54Z" fill="#C7C6C4"/>
<path d="M264.203 96.3945H270.703V102.061H264.39V121.186H257.036V102.061H253.12V96.3945H257.036V95.2695C257.036 92.384 257.89 90.0924 259.599 88.3944C261.307 86.7017 263.713 85.8528 266.828 85.8528C267.937 85.8528 268.984 85.9726 269.974 86.2069C270.958 86.4309 271.786 86.7642 272.453 87.2069L270.515 92.5403C269.667 91.9465 268.672 91.6445 267.536 91.6445C265.312 91.6445 264.203 92.8684 264.203 95.3111V96.3945Z" fill="#C7C6C4"/>
<path d="M290.729 119.957C290.006 120.499 289.115 120.905 288.063 121.165C287.006 121.426 285.901 121.561 284.75 121.561C281.719 121.561 279.381 120.79 277.729 119.249C276.089 117.707 275.271 115.452 275.271 112.478V102.061H271.354V96.3945H275.271V90.2278H282.625V96.3945H288.938V102.061H282.625V112.374C282.625 113.447 282.896 114.269 283.438 114.853C283.99 115.436 284.771 115.728 285.771 115.728C286.938 115.728 287.927 115.41 288.75 114.769L290.729 119.957Z" fill="#C7C6C4"/>
<path d="M335.58 95.832L326.393 121.186H319.33L313.622 105.436L307.726 121.186H300.664L291.518 95.832H298.455L304.434 112.978L310.664 95.832H316.872L322.914 112.978L329.08 95.832H335.58Z" fill="#C7C6C4"/>
<path d="M349.251 95.457C353.168 95.457 356.178 96.3945 358.293 98.2695C360.402 100.134 361.46 102.952 361.46 106.728V121.186H354.564V118.019C353.189 120.384 350.611 121.561 346.835 121.561C344.887 121.561 343.199 121.233 341.772 120.582C340.34 119.915 339.251 119.009 338.501 117.853C337.751 116.686 337.376 115.363 337.376 113.874C337.376 111.53 338.256 109.681 340.022 108.332C341.798 106.973 344.543 106.29 348.251 106.29H354.105C354.105 104.697 353.611 103.467 352.626 102.603C351.652 101.728 350.194 101.29 348.251 101.29C346.902 101.29 345.574 101.509 344.272 101.936C342.965 102.368 341.861 102.947 340.96 103.665L338.314 98.5195C339.689 97.5507 341.34 96.8007 343.272 96.2695C345.215 95.7278 347.21 95.457 349.251 95.457ZM348.689 116.624C349.939 116.624 351.048 116.332 352.022 115.749C352.991 115.165 353.689 114.306 354.105 113.165V110.582H349.064C346.048 110.582 344.543 111.577 344.543 113.561C344.543 114.493 344.907 115.238 345.647 115.79C346.381 116.348 347.397 116.624 348.689 116.624Z" fill="#C7C6C4"/>
<path d="M375.115 99.1861C375.99 97.9518 377.167 97.0195 378.657 96.3945C380.157 95.7695 381.875 95.457 383.823 95.457V102.249C383.016 102.181 382.469 102.144 382.178 102.144C380.079 102.144 378.433 102.738 377.24 103.915C376.042 105.098 375.448 106.863 375.448 109.207V121.186H368.094V95.832H375.115V99.1861Z" fill="#C7C6C4"/>
<path d="M413.236 108.603C413.236 108.702 413.184 109.363 413.09 110.582H393.923C394.257 112.155 395.069 113.394 396.361 114.311C397.652 115.217 399.257 115.665 401.173 115.665C402.491 115.665 403.658 115.473 404.673 115.082C405.699 114.697 406.652 114.077 407.527 113.228L411.444 117.457C409.053 120.197 405.569 121.561 400.986 121.561C398.121 121.561 395.59 121.009 393.382 119.894C391.184 118.769 389.491 117.223 388.298 115.249C387.1 113.264 386.507 111.019 386.507 108.519C386.507 106.035 387.095 103.801 388.277 101.811C389.455 99.8111 391.074 98.2591 393.132 97.1445C395.184 96.0195 397.491 95.457 400.048 95.457C402.517 95.457 404.762 95.9934 406.777 97.0611C408.788 98.1341 410.366 99.6653 411.507 101.665C412.658 103.655 413.236 105.967 413.236 108.603ZM400.09 101.019C398.423 101.019 397.017 101.493 395.882 102.436C394.757 103.384 394.069 104.665 393.819 106.29H406.298C406.048 104.697 405.35 103.415 404.215 102.457C403.09 101.499 401.715 101.019 400.09 101.019Z" fill="#C7C6C4"/>
</svg>
