<svg width="49" height="41" viewBox="0 0 49 41" fill="none" xmlns="http://www.w3.org/2000/svg">
<mask id="mask0_59_22" style="mask-type:luminance" maskUnits="userSpaceOnUse" x="2" y="-2" width="45" height="37">
<path d="M41.5 0.5H7.5C5.84315 0.5 4.5 1.84315 4.5 3.5V29.5C4.5 31.1569 5.84315 32.5 7.5 32.5H41.5C43.1569 32.5 44.5 31.1569 44.5 29.5V3.5C44.5 1.84315 43.1569 0.5 41.5 0.5Z" stroke="white" stroke-width="4" stroke-linejoin="round"/>
<path d="M4.5 3.5C4.5 2.70435 4.81607 1.94129 5.37868 1.37868C5.94129 0.81607 6.70435 0.5 7.5 0.5H41.5C42.2956 0.5 43.0587 0.81607 43.6213 1.37868C44.1839 1.94129 44.5 2.70435 44.5 3.5V12.5H4.5V3.5Z" fill="white" stroke="white" stroke-width="4"/>
<path d="M8.5 6.5C8.5 5.39543 9.39543 4.5 10.5 4.5C11.6046 4.5 12.5 5.39543 12.5 6.5C12.5 7.60457 11.6046 8.5 10.5 8.5C9.39543 8.5 8.5 7.60457 8.5 6.5Z" fill="black"/>
<path d="M14.5 6.5C14.5 5.39543 15.3954 4.5 16.5 4.5C17.6046 4.5 18.5 5.39543 18.5 6.5C18.5 7.60457 17.6046 8.5 16.5 8.5C15.3954 8.5 14.5 7.60457 14.5 6.5Z" fill="black"/>
</mask>
<g mask="url(#mask0_59_22)">
<path d="M0.5 -7.5H48.5V40.5H0.5V-7.5Z" fill="white"/>
</g>
</svg>
