<svg width="96" height="112" viewBox="0 0 96 112" fill="none" xmlns="http://www.w3.org/2000/svg">
<mask id="mask0_407_398" style="mask-type:luminance" maskUnits="userSpaceOnUse" x="0" y="0" width="96" height="112">
<path d="M0.614563 0.479187H95.6146V111.479H0.614563V0.479187Z" fill="white"/>
</mask>
<g mask="url(#mask0_407_398)">
<mask id="mask1_407_398" style="mask-type:luminance" maskUnits="userSpaceOnUse" x="0" y="0" width="96" height="112">
<path d="M48.1146 0.479187L95.6146 28.2292V83.7292L48.1146 111.479L0.614563 83.7292V28.2292L48.1146 0.479187Z" fill="white"/>
</mask>
<g mask="url(#mask1_407_398)">
<path d="M48.1146 0.479187L95.6146 28.2292V83.7292L48.1146 111.479L0.614563 83.7292V28.2292L48.1146 0.479187Z" stroke="#C7C6C4" stroke-width="25.9939"/>
</g>
</g>
<path d="M58.7195 66.664H37.532L33.4904 76.4349H22.6779L43.0112 30.8099H53.4279L73.8237 76.4349H62.7612L58.7195 66.664ZM55.3862 58.6432L48.157 41.1849L40.9279 58.6432H55.3862Z" fill="#C7C6C4"/>
</svg>
